<?xml version="1.0" standalone="no"?>
<!DOCTYPE svg PUBLIC "-//W3C//DTD SVG 20010904//EN"
 "http://www.w3.org/TR/2001/REC-SVG-20010904/DTD/svg10.dtd">
<svg version="1.0" xmlns="http://www.w3.org/2000/svg"
 width="512.000000pt" height="512.000000pt" viewBox="0 0 512.000000 512.000000"
 preserveAspectRatio="xMidYMid meet">
<metadata>
Created by potrace 1.11, written by Peter Selinger 2001-2013
</metadata>
<g transform="translate(0.000000,512.000000) scale(0.100000,-0.100000)"
fill="#000000" stroke="none">
<path d="M2095 5015 c-19 -18 -25 -35 -26 -67 0 -24 0 -139 0 -257 0 -206 1
-214 22 -237 12 -13 31 -25 43 -26 30 -6 75 19 85 46 10 25 14 476 5 513 -7
26 -50 53 -84 53 -11 0 -32 -11 -45 -25z"/>
<path d="M110 4193 c-40 -33 -40 -71 0 -117 60 -68 331 -331 347 -337 51 -18
109 33 100 87 -4 25 -45 71 -182 208 -98 97 -183 176 -189 177 -6 0 -19 2 -29
4 -10 2 -31 -8 -47 -22z"/>
<path d="M2017 4204 c-1 -1 -38 -5 -82 -9 -44 -4 -82 -9 -85 -10 -3 -2 -29 -6
-59 -10 -30 -4 -66 -11 -80 -17 -14 -5 -28 -9 -31 -8 -3 0 -27 -4 -53 -11 -52
-12 -79 -41 -79 -83 0 -21 -11 -28 -77 -52 -42 -15 -80 -30 -86 -34 -28 -21
-55 -20 -84 1 -21 16 -38 20 -59 16 -56 -11 -279 -153 -402 -256 -149 -124
-186 -174 -162 -218 22 -39 2008 -2014 2031 -2020 14 -3 37 -1 52 4 27 10 33
6 141 -103 62 -63 114 -119 116 -123 2 -5 -2 -12 -7 -16 -6 -3 -11 -21 -11
-38 0 -28 29 -60 258 -289 298 -298 286 -291 368 -210 272 263 487 689 554
1092 34 207 34 474 -1 675 -6 33 -12 69 -14 80 -1 11 -10 49 -20 85 -196 771
-814 1359 -1590 1515 -66 13 -151 27 -190 31 -68 6 -343 13 -348 8z"/>
<path d="M3913 4027 c-161 -162 -183 -187 -183 -216 0 -42 38 -81 81 -81 27 0
54 23 215 184 126 125 184 190 184 205 0 30 -26 77 -45 85 -51 19 -65 9 -252
-177z"/>
<path d="M4472 2220 c-26 -11 -52 -64 -45 -91 3 -9 15 -27 28 -39 22 -21 30
-22 274 -21 155 0 259 4 271 11 29 16 43 48 35 86 -10 58 -29 62 -300 63 -132
0 -250 -4 -263 -9z"/>
<path d="M3789 548 c-31 -10 -54 -57 -45 -90 8 -34 346 -367 376 -371 49 -8
89 28 90 80 0 27 -21 53 -176 207 -97 97 -186 178 -197 180 -12 2 -34 -1 -48
-6z"/>
</g>
</svg>
