<?xml version="1.0" ?><svg data-name="Layer 1" id="Layer_1" viewBox="0 0 64 64" xmlns="http://www.w3.org/2000/svg"><defs><style>.cls-1{fill:#677a91;}.cls-2{fill:#6e9eff;}.cls-3{fill:#002849;}</style></defs><title/><path class="cls-1" d="M55.57,24.84a2.17,2.17,0,0,0,0-.22,5.25,5.25,0,0,0-5.25-5.25,4.4,4.4,0,0,0-.54,0l-.38.05h-.07l-.22.05a4.21,4.21,0,0,0-.69.21l-.16.07a1.83,1.83,0,0,0-.27.13,10.59,10.59,0,0,0-10.35-8.36c-.34,0-.67,0-1,0l-.33,0-.27,0-.46.07-.35.08-.39.1a10.93,10.93,0,0,0-1.31.46L33,12.6a9.57,9.57,0,0,0-.9.49l-.43.28-.36.25a4.14,4.14,0,0,0-3.43-1.82l-.41,0-.33,0-.24.05-.23.06-.16.05a3.59,3.59,0,0,0-.49.21,8.37,8.37,0,0,0-8.18-6.6,8.15,8.15,0,0,0-2.09.27L15.41,6,15,6.15l-.38.15a8.29,8.29,0,0,0-1.43.78l-.33.23-.32.25-.32.27L12,8.1l-.23.24a8.2,8.2,0,0,0-.56.67L11,9.34a7.75,7.75,0,0,0-.61,1c-.06.12-.12.24-.17.37s-.1.25-.15.38a8.37,8.37,0,0,0-.41,1.6h0a.26.26,0,0,0,0,.07H9.3a7.23,7.23,0,1,0,0,14.45h8.64a9.16,9.16,0,0,0,8.8,11.68H54.86a7.07,7.07,0,0,0,.71-14.1Z"/><polygon class="cls-2" points="13.81 46.66 13.81 46.66 13.81 46.66 13.81 46.66"/><rect class="cls-2" x="50.18" y="46.66"/><path class="cls-3" d="M59.6,37.2A1,1,0,0,0,61,37.09,8.07,8.07,0,0,0,56.54,24a6.26,6.26,0,0,0-6.22-5.61,4.92,4.92,0,0,0-.6,0,4.63,4.63,0,0,0-.49.06h-.1l-.22.05-.25.06a11.65,11.65,0,0,0-11-8c-.37,0-.73,0-1.09,0h-.13l-.25,0-.31,0-.52.09-.33.08-.44.11a11.93,11.93,0,0,0-1.42.5l-.52.24a10.51,10.51,0,0,0-1,.53l-.09.06a5.12,5.12,0,0,0-3.61-1.49l-.47,0a3.09,3.09,0,0,0-.44.06l-.26.06a9.42,9.42,0,0,0-8.85-6.3,9.09,9.09,0,0,0-2.31.29,4.17,4.17,0,0,0-.49.14l-.1,0-.31.11-.44.17a9.27,9.27,0,0,0-1.6.87l-.35.25-.35.28-.37.32-.33.32L11,7.65a9.14,9.14,0,0,0-.64.76l-.25.36a8.69,8.69,0,0,0-.68,1.17c-.07.14-.14.29-.2.44s-.12.28-.16.41a8.74,8.74,0,0,0-.31,1,8.25,8.25,0,0,0-5.53,2.64,1,1,0,1,0,1.47,1.36,6.24,6.24,0,0,1,3.81-2c0,.06,0,.1,0,.16,0,.23,0,.47,0,.7a1,1,0,0,0,1,.93h.07a1,1,0,0,0,.93-1.07c0-.18,0-.37,0-.56a7.15,7.15,0,0,1,.08-1.12A7.38,7.38,0,0,1,11,11.47c0-.11.08-.22.13-.33s.09-.21.15-.32a6.76,6.76,0,0,1,.54-.93l.2-.29a7.3,7.3,0,0,1,.5-.6l.22-.23.22-.21.29-.25.28-.22.27-.19A7.34,7.34,0,0,1,15,7.22l.36-.14.2-.07.15,0,.31-.09a7.11,7.11,0,0,1,1.84-.23,7.41,7.41,0,0,1,7,5.14A5.18,5.18,0,0,0,22.77,16a5.08,5.08,0,0,0,.73,2.64,1,1,0,1,0,1.71-1,3.09,3.09,0,0,1-.44-1.6,3.16,3.16,0,0,1,1.74-2.81h0a2.58,2.58,0,0,1,.35-.15l.13,0,.11,0,.11,0,.16,0,.22,0a3.16,3.16,0,0,1,2.28.69h0l-.11.11c-.12.11-.24.22-.35.33l-.37.39c-.14.15-.27.3-.36.41s-.25.3-.36.45a5.18,5.18,0,0,0-.3.43,10.53,10.53,0,0,0-.87,1.51c-.08.17-.16.33-.23.51s-.18.42-.24.62-.1.3-.14.41-.1.35-.16.54l-.1.4c-.26,0-.52,0-.78.07l-.26,0-.51.08-.3.07L24,20l-.31.1-.42.14-.31.12-.4.17-.31.15-.38.19-.3.17-.36.22-.29.19-.34.24-.27.21-.32.27-.26.23-.3.29-.24.25-.28.32-.22.26-.26.35-.19.27-.24.38-.16.27c-.08.14-.15.28-.22.43l-.13.26c-.08.17-.15.34-.22.51l-.09.21v0H9.3A6.23,6.23,0,0,1,3.08,20a6.3,6.3,0,0,1,0-.77,1,1,0,1,0-2-.25,8.32,8.32,0,0,0-.06,1A8.23,8.23,0,0,0,9.3,28.25h7.41a10.11,10.11,0,0,0,10,11.68H54.86a1,1,0,0,0,0-2H26.75a8.15,8.15,0,0,1-.69-16.28c0,.17,0,.34,0,.5s0,.59,0,.88a1,1,0,0,0,1,.92h.09a1,1,0,0,0,.91-1.08c0-.24,0-.48,0-.71a10.46,10.46,0,0,1,.09-1.39c0-.18.06-.36.1-.54s.07-.33.11-.47.08-.3.14-.47.07-.22.11-.35.13-.33.21-.52.12-.27.19-.43a8.85,8.85,0,0,1,.73-1.26c.06-.1.14-.21.22-.32s.17-.23.3-.38.18-.21.29-.34l.3-.32.29-.28.19-.17.35-.29.21-.16.07,0,.33-.23.38-.25a8.55,8.55,0,0,1,.81-.44l.43-.2a10,10,0,0,1,1.19-.42l.36-.09.31-.07.42-.07.19,0,.12,0,.14,0h.09c.3,0,.61,0,.92,0a9.63,9.63,0,0,1,9.19,6.88,6.19,6.19,0,0,0-2.75,5.17,6.33,6.33,0,0,0,.88,3.2,1,1,0,0,0,1.72-1,4.27,4.27,0,0,1-.6-2.19,4.21,4.21,0,0,1,2.35-3.79l0,0h0l.14-.07.09,0h0l.07,0a3.78,3.78,0,0,1,.61-.19l.13,0h.07l.31,0,.42,0a4.26,4.26,0,0,1,4.25,4.25v.12a1,1,0,0,0,.9,1.1,6.07,6.07,0,0,1,4,10A1,1,0,0,0,59.6,37.2Z"/><path class="cls-3" d="M27.55,25.61a1,1,0,0,0-.5,1.32q.2.44.43.86a1,1,0,1,0,1.75-1c-.13-.23-.25-.47-.36-.71A1,1,0,0,0,27.55,25.61Z"/><path class="cls-3" d="M9.7,18.56a1,1,0,0,0,1.75-1q-.15-.27-.27-.55a1,1,0,1,0-1.82.82C9.46,18.1,9.58,18.34,9.7,18.56Z"/><path class="cls-3" d="M18,46.66a1,1,0,0,0-1-1h-.78l.55-.55a1,1,0,1,0-1.41-1.41l-.55.55v-.78a1,1,0,0,0-2,0v.78l-.55-.55a1,1,0,0,0-1.41,1.41l.55.55h-.78a1,1,0,0,0,0,2h.78l-.55.55a1,1,0,1,0,1.41,1.41l.55-.55v.78a1,1,0,0,0,2,0v-.78l.55.55a1,1,0,1,0,1.41-1.41l-.55-.55H17A1,1,0,0,0,18,46.66Z"/><path class="cls-3" d="M36.19,46.66a1,1,0,0,0-1-1h-.78l.55-.55a1,1,0,0,0-1.41-1.41l-.55.55v-.78a1,1,0,0,0-2,0v.78l-.55-.55A1,1,0,0,0,29,45.11l.55.55h-.78a1,1,0,1,0,0,2h.78l-.55.55a1,1,0,1,0,1.41,1.41l.55-.55v.78a1,1,0,0,0,2,0v-.78l.55.55A1,1,0,0,0,35,48.21l-.55-.55h.78A1,1,0,0,0,36.19,46.66Z"/><path class="cls-3" d="M54.38,46.66a1,1,0,0,0-1-1H52.6l.55-.55a1,1,0,0,0-1.41-1.41l-.55.55v-.78a1,1,0,0,0-2,0v.78l-.55-.55a1,1,0,0,0-1.41,1.41l.55.55H47a1,1,0,0,0,0,2h.78l-.55.55a1,1,0,1,0,1.41,1.41l.55-.55v.78a1,1,0,0,0,2,0v-.78l.55.55a1,1,0,0,0,1.41-1.41l-.55-.55h.78A1,1,0,0,0,54.38,46.66Z"/><path class="cls-3" d="M27.1,55.16a1,1,0,0,0-1-1h-.78l.55-.55a1,1,0,0,0-1.41-1.41l-.55.55V52a1,1,0,0,0-2,0v.78l-.55-.55a1,1,0,0,0-1.41,1.41l.55.55h-.78a1,1,0,0,0,0,2h.78l-.55.55a1,1,0,1,0,1.41,1.41l.55-.55v.78a1,1,0,0,0,2,0v-.78l.55.55a1,1,0,0,0,1.41-1.41l-.55-.55h.78A1,1,0,0,0,27.1,55.16Z"/><path class="cls-3" d="M45.28,55.16a1,1,0,0,0-1-1h-.78l.55-.55a1,1,0,0,0-1.41-1.41l-.55.55V52a1,1,0,0,0-2,0v.78l-.55-.55a1,1,0,0,0-1.41,1.41l.55.55H37.9a1,1,0,0,0,0,2h.78l-.55.55a1,1,0,1,0,1.41,1.41l.55-.55v.78a1,1,0,0,0,2,0v-.78l.55.55a1,1,0,0,0,1.41-1.41l-.55-.55h.78A1,1,0,0,0,45.28,55.16Z"/></svg>