<?xml version="1.0" ?><svg data-name="Layer 1" id="Layer_1" viewBox="0 0 64 64" xmlns="http://www.w3.org/2000/svg"><defs><style>.cls-1{fill:#6e9eff;}.cls-2{fill:#fedb41;}.cls-3{fill:#002849;}</style></defs><title/><path class="cls-1" d="M54.68,27.81a2.47,2.47,0,0,0,0-.25,6,6,0,0,0-6-6,5.06,5.06,0,0,0-.62,0,3.94,3.94,0,0,0-.44.06l-.08,0-.25.06a4.84,4.84,0,0,0-.8.25.72.72,0,0,0-.19.08,2.1,2.1,0,0,0-.31.14,12.16,12.16,0,0,0-11.88-9.6c-.39,0-.77,0-1.15.05l-.38.05-.31,0-.53.08-.41.09-.45.11a12.55,12.55,0,0,0-1.5.53l-.54.25a11,11,0,0,0-1,.56l-.24.15-.23.14h0l0,0c-.17.1-.32.22-.48.34l-.31.24-.41.34-.27.25c-.12.1-.23.21-.34.32l-.4.42c-.14.14-.26.29-.38.44s-.25.3-.36.46a5.33,5.33,0,0,0-.31.45,10.86,10.86,0,0,0-.9,1.55c-.08.18-.17.36-.25.54s-.19.44-.26.67-.1.3-.14.44-.11.37-.16.56-.1.41-.14.61-.09.47-.13.7h-.44a10.5,10.5,0,0,0-9.76,6.61,10.28,10.28,0,0,0-.76,3.9A10.51,10.51,0,0,0,21.59,44H53.86a8.11,8.11,0,0,0,.81-16.19Z"/><path class="cls-2" d="M11.83,29.58A10.5,10.5,0,0,1,21.59,23H22c0-.24.08-.48.13-.7s.09-.42.14-.61.1-.37.16-.56.09-.3.14-.44.17-.45.26-.67.16-.36.25-.54A10.86,10.86,0,0,1,24,17.9a5.33,5.33,0,0,1,.31-.45c.12-.16.24-.31.36-.46s.25-.3.38-.44l.4-.42c.11-.11.22-.22.34-.32l.27-.25.41-.34L26.8,15c.16-.12.31-.24.48-.34l0,0h0A12.79,12.79,0,0,0,15.92,4.38c.26.21.51.44.75.68a9.89,9.89,0,0,1-14,14A9.27,9.27,0,0,1,2,18.28a12.79,12.79,0,0,0,9.81,11.3Z"/><path class="cls-3" d="M53.87,43H52a1,1,0,0,0,0,2h1.87a9.11,9.11,0,0,0,1.8-18,7,7,0,0,0-7-6.42,5.48,5.48,0,0,0-.68,0,5,5,0,0,0-.55.07h-.11l-.25.06-.41.1a13.22,13.22,0,0,0-12.57-9.26c-.42,0-.83,0-1.28.06h-.1l-.28,0-.32,0-.63.1-.38.09-.5.12a13.75,13.75,0,0,0-1.61.56l-.6.27-.43.22a13.67,13.67,0,0,0-3.43-5.71,13.83,13.83,0,0,0-8.5-4A1,1,0,0,0,15,4a1,1,0,0,0,.3,1.15c.24.19.46.4.68.61a8.88,8.88,0,0,1-2,14.09,1,1,0,0,0,1,1.76A10.88,10.88,0,0,0,18.74,6a11.83,11.83,0,0,1,7.44,8.18l-.32.25-.41.34-.29.26c-.13.11-.26.24-.39.37l-.42.45c-.16.17-.3.34-.4.47s-.28.34-.41.51a5.76,5.76,0,0,0-.34.49,11.88,11.88,0,0,0-1,1.7c-.09.19-.18.38-.26.57s-.21.49-.28.72-.12.34-.16.47-.12.4-.18.61-.09.38-.14.56a11.66,11.66,0,0,0-1.5.15l-.12,0a11.51,11.51,0,0,0-1.37.33l-.17.05a11.42,11.42,0,0,0-1.27.5l-.18.08a11.37,11.37,0,0,0-1.17.65l-.17.11a11.38,11.38,0,0,0-1.08.81L14,24.8a11.39,11.39,0,0,0-1,1l-.09.1A11.42,11.42,0,0,0,12.06,27l0,0a11.54,11.54,0,0,0-.77,1.33h0a11.8,11.8,0,0,1-7.6-7.28,10.88,10.88,0,0,0,6.66,1.79,1,1,0,0,0-.12-2,8.92,8.92,0,0,1-6.79-2.57,8.25,8.25,0,0,1-.6-.67,1,1,0,0,0-1.79.7,13.78,13.78,0,0,0,9.51,11.88,11.37,11.37,0,0,0-.46,3.23A11.52,11.52,0,0,0,21.59,45H47.83a1,1,0,0,0,0-2H21.59a9.52,9.52,0,0,1-9.51-9.51,9.29,9.29,0,0,1,.68-3.53A9.43,9.43,0,0,1,20.93,24c0,.24,0,.47,0,.71s0,.67,0,1a1,1,0,0,0,1,.92H22a1,1,0,0,0,.91-1.08c0-.28,0-.56,0-.83A12.18,12.18,0,0,1,23,23.12c0-.21.07-.42.11-.64s.09-.38.13-.55.09-.35.16-.54.08-.26.13-.4.15-.4.24-.61.14-.32.23-.5a10.12,10.12,0,0,1,.85-1.46,4.34,4.34,0,0,1,.26-.37c.1-.14.2-.27.35-.44s.21-.25.34-.39l.38-.4.32-.3.23-.2.39-.32.26-.2.09-.07c.1-.08.2-.15.31-.22l.05,0,.07-.05.09-.06.08,0,.2-.13a10.24,10.24,0,0,1,1-.52l.47-.21A11.71,11.71,0,0,1,31.12,14l.43-.1.36-.08.5-.08.22,0,.12,0,.18,0H33c.35,0,.71,0,1.07,0a11.2,11.2,0,0,1,10.73,8.12,7,7,0,0,0-3.19,5.87,7.11,7.11,0,0,0,1,3.6,1,1,0,0,0,1.72-1,5,5,0,0,1-.71-2.59,5,5,0,0,1,2.79-4.49l0,0h0l.18-.09.1,0h0l.08,0a4.48,4.48,0,0,1,.72-.22l.16,0h.07l.37,0a4.13,4.13,0,0,1,.5,0,5,5,0,0,1,5,5c0,.05,0,.11,0,.15a1,1,0,0,0,.9,1.1A7.11,7.11,0,0,1,53.87,43Z"/><path class="cls-3" d="M22.57,28.82a1,1,0,0,0-.5,1.32q.23.5.49,1a1,1,0,1,0,1.75-1q-.23-.4-.42-.83A1,1,0,0,0,22.57,28.82Z"/><path class="cls-3" d="M25.19,47.78a1,1,0,0,0-1.22.71l-1.53,5.7a1,1,0,1,0,1.93.52L25.9,49A1,1,0,0,0,25.19,47.78Z"/><path class="cls-3" d="M35.8,48.49l-1.53,5.7a1,1,0,1,0,1.93.52L37.73,49a1,1,0,0,0-1.93-.52Z"/><path class="cls-3" d="M47.63,48.49l-1.53,5.7A1,1,0,1,0,48,54.7L49.56,49a1,1,0,0,0-1.93-.52Z"/><path class="cls-3" d="M28.3,59.62a1,1,0,0,0,1-.74L31.91,49A1,1,0,1,0,30,48.49l-2.65,9.88a1,1,0,0,0,1,1.26Z"/><path class="cls-3" d="M41.82,48.49,38.9,59.36a1,1,0,1,0,1.93.52L43.75,49a1,1,0,1,0-1.93-.52Z"/></svg>