<?xml version="1.0" ?><svg data-name="Layer 1" id="Layer_1" viewBox="0 0 64 64" xmlns="http://www.w3.org/2000/svg"><defs><style>.cls-1{fill:#677a91;}.cls-2{fill:#6e9eff;}.cls-3{fill:#002849;}</style></defs><title/><path class="cls-1" d="M53.4,21a2.58,2.58,0,0,0,0-.31,7.11,7.11,0,0,0-7.94-7.06h0a7,7,0,0,0-.74.13l-.11,0c-.23.06-.45.12-.66.2l-.09,0a6.87,6.87,0,0,0-.69.3h0A14.35,14.35,0,0,0,29.12,3c-.36,0-.71,0-1.06,0h-.29A14.37,14.37,0,0,0,14.91,15.31h-.53a12.39,12.39,0,0,0,0,24.78H52.44A9.56,9.56,0,0,0,53.4,21Z"/><path class="cls-2" d="M14.78,15.31h.13A14.37,14.37,0,0,1,27.76,3.09,14.33,14.33,0,0,0,14.78,15.31Z"/><path class="cls-2" d="M43.83,14a7.05,7.05,0,0,0-.69.3h0A6.87,6.87,0,0,1,43.83,14Z"/><path class="cls-3" d="M15.38,47.23a1,1,0,0,0-1-1H13l.94-.94a1,1,0,0,0-1.41-1.41l-.94.94V43.48a1,1,0,0,0-2,0v1.34l-.94-.94a1,1,0,0,0-1.41,1.41l.94.94H6.88a1,1,0,0,0,0,2H8.21l-.94.94a1,1,0,1,0,1.41,1.41l.94-.94V51a1,1,0,0,0,2,0V49.64l.94.94A1,1,0,0,0,14,49.17L13,48.23h1.34A1,1,0,0,0,15.38,47.23Z"/><path class="cls-3" d="M36.75,47.23a1,1,0,0,0-1-1H34.41l.94-.94a1,1,0,0,0-1.41-1.41l-.94.94V43.48a1,1,0,0,0-2,0v1.34l-.94-.94a1,1,0,0,0-1.41,1.41l.94.94H28.25a1,1,0,0,0,0,2h1.34l-.94.94a1,1,0,1,0,1.41,1.41l.94-.94V51a1,1,0,0,0,2,0V49.64l.94.94a1,1,0,0,0,1.41-1.41l-.94-.94h1.34A1,1,0,0,0,36.75,47.23Z"/><path class="cls-3" d="M58.13,47.23a1,1,0,0,0-1-1H55.79l.94-.94a1,1,0,0,0-1.41-1.41l-.94.94V43.48a1,1,0,0,0-2,0v1.34l-.94-.94A1,1,0,0,0,50,45.28l.94.94H49.63a1,1,0,0,0,0,2H51l-.94.94a1,1,0,1,0,1.41,1.41l.94-.94V51a1,1,0,0,0,2,0V49.64l.94.94a1,1,0,0,0,1.41-1.41l-.94-.94h1.34A1,1,0,0,0,58.13,47.23Z"/><path class="cls-3" d="M26.06,57.23a1,1,0,0,0-1-1H23.73l.94-.94a1,1,0,0,0-1.41-1.41l-.94.94V53.48a1,1,0,0,0-2,0v1.34l-.94-.94A1,1,0,0,0,18,55.28l.94.94H17.56a1,1,0,0,0,0,2H18.9l-.94.94a1,1,0,1,0,1.41,1.41l.94-.94V61a1,1,0,0,0,2,0V59.64l.94.94a1,1,0,0,0,1.41-1.41l-.94-.94h1.34A1,1,0,0,0,26.06,57.23Z"/><path class="cls-3" d="M47.44,57.23a1,1,0,0,0-1-1H45.1l.94-.94a1,1,0,0,0-1.41-1.41l-.94.94V53.48a1,1,0,0,0-2,0v1.34l-.94-.94a1,1,0,0,0-1.41,1.41l.94.94H38.94a1,1,0,0,0,0,2h1.34l-.94.94a1,1,0,1,0,1.41,1.41l.94-.94V61a1,1,0,0,0,2,0V59.64l.94.94A1,1,0,0,0,46,59.17l-.94-.94h1.34A1,1,0,0,0,47.44,57.23Z"/><path class="cls-3" d="M14.39,41.08H52.44a10.53,10.53,0,0,0,7.16-2.8,1,1,0,0,0-1.36-1.47,8.54,8.54,0,0,1-5.8,2.27H14.39A11.39,11.39,0,0,1,4.5,22a1,1,0,0,0-1.74-1,13.39,13.39,0,0,0,11.63,20Z"/><path class="cls-3" d="M54.39,20.14a8.12,8.12,0,0,0-8.06-7.54h0a8.09,8.09,0,0,0-1.19.1l-.12,0a8,8,0,0,0-1.17.28A15.42,15.42,0,0,0,29.12,2H29c-.22,0-.44,0-.66,0l-.58,0a15.37,15.37,0,0,0-13.8,12.22,13.29,13.29,0,0,0-7.2,2.4,1,1,0,1,0,1.15,1.64,11.29,11.29,0,0,1,5.8-2c0,.35-.05.69-.05,1s0,.77,0,1.15a1,1,0,0,0,1,.93h.08a1,1,0,0,0,.92-1.07q0-.5,0-1a13.4,13.4,0,0,1,.09-1.47,1,1,0,0,0,.2-.45,13.43,13.43,0,0,1,12-11.37H28c.38,0,.76-.05,1.15-.05A13.4,13.4,0,0,1,42,13.85a8.1,8.1,0,0,0-2.64,11,1,1,0,0,0,1.72-1,6.1,6.1,0,0,1,2.53-8.59h0a5.83,5.83,0,0,1,.6-.26l.07,0a6,6,0,0,1,.6-.18h0a6.1,6.1,0,0,1,7.49,5.95,1.54,1.54,0,0,1,0,.18A1,1,0,0,0,53.3,22,8.53,8.53,0,0,1,61,30.52a8.73,8.73,0,0,1-.1,1.31A1,1,0,0,0,61.74,33h.15a1,1,0,0,0,1-.85A10.68,10.68,0,0,0,63,30.52,10.52,10.52,0,0,0,54.39,20.14Z"/><path class="cls-3" d="M16.57,25.34a1,1,0,0,0,.87-1.49q-.27-.48-.5-1a1,1,0,1,0-1.82.82q.26.58.57,1.14A1,1,0,0,0,16.57,25.34Z"/></svg>