<?xml version="1.0" ?><svg data-name="Layer 1" id="Layer_1" viewBox="0 0 64 64" xmlns="http://www.w3.org/2000/svg"><defs><style>.cls-1{fill:#ecf1f6;}.cls-2{fill:#fc445d;}.cls-3{fill:#002849;}</style></defs><title/><path class="cls-1" d="M40.93,38.6V6.83a4.83,4.83,0,0,0-9.66,0V38.6a12.2,12.2,0,1,0,9.66,0ZM36.1,57a7.2,7.2,0,1,1,7.2-7.2A7.21,7.21,0,0,1,36.1,57Z"/><circle class="cls-2" cx="48.81" cy="7.13" r="2.88"/><path class="cls-3" d="M48.3,48.8a1,1,0,0,0-1,1A11.2,11.2,0,1,1,31.67,39.52a1,1,0,0,0,.61-.92V12a1,1,0,1,0-2,0V38a13.2,13.2,0,1,0,19,11.84A1,1,0,0,0,48.3,48.8Z"/><path class="cls-3" d="M40.54,39.52a11.19,11.19,0,0,1,6.13,6.56,1,1,0,1,0,1.89-.66A13.21,13.21,0,0,0,41.93,38V6.83a5.83,5.83,0,1,0-11.66,0,1,1,0,0,0,2,0,3.83,3.83,0,1,1,7.66,0V38.6A1,1,0,0,0,40.54,39.52Z"/><path class="cls-3" d="M19.89,5.23H12.31a1,1,0,0,0,0,2h7.58a1,1,0,0,0,0-2Z"/><path class="cls-3" d="M19.89,11H16.23a1,1,0,0,0,0,2h3.67a1,1,0,0,0,0-2Z"/><path class="cls-3" d="M19.89,16.68H16.23a1,1,0,0,0,0,2h3.67a1,1,0,0,0,0-2Z"/><path class="cls-3" d="M19.89,22.41H12.31a1,1,0,0,0,0,2h7.58a1,1,0,0,0,0-2Z"/><path class="cls-3" d="M19.89,28.14H16.23a1,1,0,0,0,0,2h3.67a1,1,0,0,0,0-2Z"/><path class="cls-3" d="M19.89,33.86H16.23a1,1,0,0,0,0,2h3.67a1,1,0,0,0,0-2Z"/><path class="cls-3" d="M19.89,39.59H12.31a1,1,0,0,0,0,2h7.58a1,1,0,0,0,0-2Z"/><path class="cls-3" d="M19.89,45.32H16.23a1,1,0,0,0,0,2h3.67a1,1,0,0,0,0-2Z"/><path class="cls-3" d="M19.89,51H16.23a1,1,0,0,0,0,2h3.67a1,1,0,1,0,0-2Z"/><path class="cls-3" d="M19.89,56.77H12.31a1,1,0,0,0,0,2h7.58a1,1,0,1,0,0-2Z"/><path class="cls-3" d="M48.81,3.24a3.88,3.88,0,1,0,3.88,3.88A3.89,3.89,0,0,0,48.81,3.24Zm0,5.77a1.88,1.88,0,1,1,1.88-1.88A1.89,1.89,0,0,1,48.81,9Z"/><path class="cls-2" d="M37.6,42.76V7a1.5,1.5,0,0,0-3,0V42.76a7.2,7.2,0,1,0,3,0Z"/></svg>